<svg xmlns="http://www.w3.org/2000/svg" viewBox="0 0 5551 80" width="5551" height="80"><path d="M19.939 49.756c-.582-.084-1.152-.235-1.7-.449-.596-.328-1.164-.704-1.7-1.123l-2.293-2.808-1.465-3.125-.977-3.783v-4.441l.977-2.8 1.465-3.289 1.465-3.125 2.116-2.467 1.954-2.3 3.093-2.467 2.93-2.138 2.442-1.645 3.419-1.48L35.89 11l4.884-.658h4.4l3.582.658 3.744 1.316 3.582 1.48 2.442 1.645 2.6 2.138 2.116 2.467 1.3 2.3 1.3 4.441.651 5.263-.651 5.756-1.3 5.1-2.116 4.77-2.6 3.947-3.744 3.454-3.58 2.634-3.744 1.645-3.582.822-4.4.822h-7.652l-4.884-.822h-6.18l6.832-5.1 1.954-6.414 2.279-8.223 1.791-5.756 2.116-7.894 1.954-7.73h-4.973" fill="none" stroke="#880e4f" stroke-width="6" stroke-dasharray="0,209.6131235151766" stroke-dashoffset="209.613124"/><path d="M110.939 49.756c-.582-.084-1.152-.235-1.7-.449-.596-.328-1.164-.704-1.7-1.123l-2.293-2.808-1.465-3.125-.977-3.783v-4.441l.977-2.8 1.465-3.289 1.465-3.125 2.116-2.467 1.954-2.3 3.093-2.467 2.93-2.138 2.442-1.645 3.419-1.48L126.89 11l4.884-.658h4.4l3.582.658 3.744 1.316 3.582 1.48 2.442 1.645 2.6 2.138 2.116 2.467 1.3 2.3 1.3 4.441.651 5.263-.651 5.756-1.3 5.1-2.116 4.77-2.6 3.947-3.744 3.454-3.58 2.634-3.744 1.645-3.582.822-4.4.822h-7.652l-4.884-.822h-6.18l6.832-5.1 1.954-6.414 2.279-8.223 1.791-5.756 2.116-7.894 1.954-7.73h-4.973" fill="none" stroke="#880e4f" stroke-width="6" stroke-dasharray="0.12536981931077268,209.48775369586582" stroke-dashoffset="209.613124"/><path d="M201.939 49.756c-.582-.084-1.152-.235-1.7-.449-.596-.328-1.164-.704-1.7-1.123l-2.293-2.808-1.465-3.125-.977-3.783v-4.441l.977-2.8 1.465-3.289 1.465-3.125 2.116-2.467 1.954-2.3 3.093-2.467 2.93-2.138 2.442-1.645 3.419-1.48L217.89 11l4.884-.658h4.4l3.582.658 3.744 1.316 3.582 1.48 2.442 1.645 2.6 2.138 2.116 2.467 1.3 2.3 1.3 4.441.651 5.263-.651 5.756-1.3 5.1-2.116 4.77-2.6 3.947-3.744 3.454-3.58 2.634-3.744 1.645-3.582.822-4.4.822h-7.652l-4.884-.822h-6.18l6.832-5.1 1.954-6.414 2.279-8.223 1.791-5.756 2.116-7.894 1.954-7.73h-4.973" fill="none" stroke="#880e4f" stroke-width="6" stroke-dasharray="0.5188906580851934,209.0942328570914" stroke-dashoffset="209.613124"/><path d="M292.939 49.756c-.582-.084-1.152-.235-1.7-.449-.596-.328-1.164-.704-1.7-1.123l-2.293-2.808-1.465-3.125-.977-3.783v-4.441l.977-2.8 1.465-3.289 1.465-3.125 2.116-2.467 1.954-2.3 3.093-2.467 2.93-2.138 2.442-1.645 3.419-1.48L308.89 11l4.884-.658h4.4l3.582.658 3.744 1.316 3.582 1.48 2.442 1.645 2.6 2.138 2.116 2.467 1.3 2.3 1.3 4.441.651 5.263-.651 5.756-1.3 5.1-2.116 4.77-2.6 3.947-3.744 3.454-3.58 2.634-3.744 1.645-3.582.822-4.4.822h-7.652l-4.884-.822h-6.18l6.832-5.1 1.954-6.414 2.279-8.223 1.791-5.756 2.116-7.894 1.954-7.73h-4.973" fill="none" stroke="#880e4f" stroke-width="6" stroke-dasharray="1.2095122099499924,208.4036113052266" stroke-dashoffset="209.613124"/><path d="M383.939 49.756c-.582-.084-1.152-.235-1.7-.449-.596-.328-1.164-.704-1.7-1.123l-2.293-2.808-1.465-3.125-.977-3.783v-4.441l.977-2.8 1.465-3.289 1.465-3.125 2.116-2.467 1.954-2.3 3.093-2.467 2.93-2.138 2.442-1.645 3.419-1.48L399.89 11l4.884-.658h4.4l3.582.658 3.744 1.316 3.582 1.48 2.442 1.645 2.6 2.138 2.116 2.467 1.3 2.3 1.3 4.441.651 5.263-.651 5.756-1.3 5.1-2.116 4.77-2.6 3.947-3.744 3.454-3.58 2.634-3.744 1.645-3.582.822-4.4.822h-7.652l-4.884-.822h-6.18l6.832-5.1 1.954-6.414 2.279-8.223 1.791-5.756 2.116-7.894 1.954-7.73h-4.973" fill="none" stroke="#880e4f" stroke-width="6" stroke-dasharray="2.2304418621556685,207.3826816530209" stroke-dashoffset="209.613124"/><path d="M474.939 49.756c-.582-.084-1.152-.235-1.7-.449-.596-.328-1.164-.704-1.7-1.123l-2.293-2.808-1.465-3.125-.977-3.783v-4.441l.977-2.8 1.465-3.289 1.465-3.125 2.116-2.467 1.954-2.3 3.093-2.467 2.93-2.138 2.442-1.645 3.419-1.48L490.89 11l4.884-.658h4.4l3.582.658 3.744 1.316 3.582 1.48 2.442 1.645 2.6 2.138 2.116 2.467 1.3 2.3 1.3 4.441.651 5.263-.651 5.756-1.3 5.1-2.116 4.77-2.6 3.947-3.744 3.454-3.58 2.634-3.744 1.645-3.582.822-4.4.822h-7.652l-4.884-.822h-6.18l6.832-5.1 1.954-6.414 2.279-8.223 1.791-5.756 2.116-7.894 1.954-7.73h-4.973" fill="none" stroke="#880e4f" stroke-width="6" stroke-dasharray="3.6197894792398837,205.9933340359367" stroke-dashoffset="209.613124"/><path d="M565.939 49.756c-.582-.084-1.152-.235-1.7-.449-.596-.328-1.164-.704-1.7-1.123l-2.293-2.808-1.465-3.125-.977-3.783v-4.441l.977-2.8 1.465-3.289 1.465-3.125 2.116-2.467 1.954-2.3 3.093-2.467 2.93-2.138 2.442-1.645 3.419-1.48L581.89 11l4.884-.658h4.4l3.582.658 3.744 1.316 3.582 1.48 2.442 1.645 2.6 2.138 2.116 2.467 1.3 2.3 1.3 4.441.651 5.263-.651 5.756-1.3 5.1-2.116 4.77-2.6 3.947-3.744 3.454-3.58 2.634-3.744 1.645-3.582.822-4.4.822h-7.652l-4.884-.822h-6.18l6.832-5.1 1.954-6.414 2.279-8.223 1.791-5.756 2.116-7.894 1.954-7.73h-4.973" fill="none" stroke="#880e4f" stroke-width="6" stroke-dasharray="5.421227334908603,204.191896180268" stroke-dashoffset="209.613124"/><path d="M656.939 49.756c-.582-.084-1.152-.235-1.7-.449-.596-.328-1.164-.704-1.7-1.123l-2.293-2.808-1.465-3.125-.977-3.783v-4.441l.977-2.8 1.465-3.289 1.465-3.125 2.116-2.467 1.954-2.3 3.093-2.467 2.93-2.138 2.442-1.645 3.419-1.48L672.89 11l4.884-.658h4.4l3.582.658 3.744 1.316 3.582 1.48 2.442 1.645 2.6 2.138 2.116 2.467 1.3 2.3 1.3 4.441.651 5.263-.651 5.756-1.3 5.1-2.116 4.77-2.6 3.947-3.744 3.454-3.58 2.634-3.744 1.645-3.582.822-4.4.822h-7.652l-4.884-.822h-6.18l6.832-5.1 1.954-6.414 2.279-8.223 1.791-5.756 2.116-7.894 1.954-7.73h-4.973" fill="none" stroke="#880e4f" stroke-width="6" stroke-dasharray="7.684577370004171,201.92854614517242" stroke-dashoffset="209.613124"/><path d="M747.939 49.756c-.582-.084-1.152-.235-1.7-.449-.596-.328-1.164-.704-1.7-1.123l-2.293-2.808-1.465-3.125-.977-3.783v-4.441l.977-2.8 1.465-3.289 1.465-3.125 2.116-2.467 1.954-2.3 3.093-2.467 2.93-2.138 2.442-1.645 3.419-1.48L763.89 11l4.884-.658h4.4l3.582.658 3.744 1.316 3.582 1.48 2.442 1.645 2.6 2.138 2.116 2.467 1.3 2.3 1.3 4.441.651 5.263-.651 5.756-1.3 5.1-2.116 4.77-2.6 3.947-3.744 3.454-3.58 2.634-3.744 1.645-3.582.822-4.4.822h-7.652l-4.884-.822h-6.18l6.832-5.1 1.954-6.414 2.279-8.223 1.791-5.756 2.116-7.894 1.954-7.73h-4.973" fill="none" stroke="#880e4f" stroke-width="6" stroke-dasharray="10.466152405961124,199.14697110921546" stroke-dashoffset="209.613124"/><path d="M838.939 49.756c-.582-.084-1.152-.235-1.7-.449-.596-.328-1.164-.704-1.7-1.123l-2.293-2.808-1.465-3.125-.977-3.783v-4.441l.977-2.8 1.465-3.289 1.465-3.125 2.116-2.467 1.954-2.3 3.093-2.467 2.93-2.138 2.442-1.645 3.419-1.48L854.89 11l4.884-.658h4.4l3.582.658 3.744 1.316 3.582 1.48 2.442 1.645 2.6 2.138 2.116 2.467 1.3 2.3 1.3 4.441.651 5.263-.651 5.756-1.3 5.1-2.116 4.77-2.6 3.947-3.744 3.454-3.58 2.634-3.744 1.645-3.582.822-4.4.822h-7.652l-4.884-.822h-6.18l6.832-5.1 1.954-6.414 2.279-8.223 1.791-5.756 2.116-7.894 1.954-7.73h-4.973" fill="none" stroke="#880e4f" stroke-width="6" stroke-dasharray="13.828532438235431,195.78459107694118" stroke-dashoffset="209.613124"/><path d="M929.939 49.756c-.582-.084-1.152-.235-1.7-.449-.596-.328-1.164-.704-1.7-1.123l-2.293-2.808-1.465-3.125-.977-3.783v-4.441l.977-2.8 1.465-3.289 1.465-3.125 2.116-2.467 1.954-2.3 3.093-2.467 2.93-2.138 2.442-1.645 3.419-1.48L945.89 11l4.884-.658h4.4l3.582.658 3.744 1.316 3.582 1.48 2.442 1.645 2.6 2.138 2.116 2.467 1.3 2.3 1.3 4.441.651 5.263-.651 5.756-1.3 5.1-2.116 4.77-2.6 3.947-3.744 3.454-3.58 2.634-3.744 1.645-3.582.822-4.4.822h-7.652l-4.884-.822h-6.18l6.832-5.1 1.954-6.414 2.279-8.223 1.791-5.756 2.116-7.894 1.954-7.73h-4.973" fill="none" stroke="#880e4f" stroke-width="6" stroke-dasharray="17.83922582760306,191.77389768757354" stroke-dashoffset="209.613124"/><path d="M1020.939 49.756c-.582-.084-1.152-.235-1.7-.449-.596-.328-1.164-.704-1.7-1.123l-2.293-2.808-1.465-3.125-.977-3.783v-4.441l.977-2.8 1.465-3.289 1.465-3.125 2.116-2.467 1.954-2.3 3.093-2.467 2.93-2.138 2.442-1.645 3.419-1.48L1036.89 11l4.884-.658h4.4l3.582.658 3.744 1.316 3.582 1.48 2.442 1.645 2.6 2.138 2.116 2.467 1.3 2.3 1.3 4.441.651 5.263-.651 5.756-1.3 5.1-2.116 4.77-2.6 3.947-3.744 3.454-3.58 2.634-3.744 1.645-3.582.822-4.4.822h-7.652l-4.884-.822h-6.18l6.832-5.1 1.954-6.414 2.279-8.223 1.791-5.756 2.116-7.894 1.954-7.73h-4.973" fill="none" stroke="#880e4f" stroke-width="6" stroke-dasharray="22.567337394946456,187.04578612023013" stroke-dashoffset="209.613124"/><path d="M1111.939 49.756c-.582-.084-1.152-.235-1.7-.449-.596-.328-1.164-.704-1.7-1.123l-2.293-2.808-1.465-3.125-.977-3.783v-4.441l.977-2.8 1.465-3.289 1.465-3.125 2.116-2.467 1.954-2.3 3.093-2.467 2.93-2.138 2.442-1.645 3.419-1.48L1127.89 11l4.884-.658h4.4l3.582.658 3.744 1.316 3.582 1.48 2.442 1.645 2.6 2.138 2.116 2.467 1.3 2.3 1.3 4.441.651 5.263-.651 5.756-1.3 5.1-2.116 4.77-2.6 3.947-3.744 3.454-3.58 2.634-3.744 1.645-3.582.822-4.4.822h-7.652l-4.884-.822h-6.18l6.832-5.1 1.954-6.414 2.279-8.223 1.791-5.756 2.116-7.894 1.954-7.73h-4.973" fill="none" stroke="#880e4f" stroke-width="6" stroke-dasharray="28.07700190848818,181.5361216066884" stroke-dashoffset="209.613124"/><path d="M1202.939 49.756c-.582-.084-1.152-.235-1.7-.449-.596-.328-1.164-.704-1.7-1.123l-2.293-2.808-1.465-3.125-.977-3.783v-4.441l.977-2.8 1.465-3.289 1.465-3.125 2.116-2.467 1.954-2.3 3.093-2.467 2.93-2.138 2.442-1.645 3.419-1.48L1218.89 11l4.884-.658h4.4l3.582.658 3.744 1.316 3.582 1.48 2.442 1.645 2.6 2.138 2.116 2.467 1.3 2.3 1.3 4.441.651 5.263-.651 5.756-1.3 5.1-2.116 4.77-2.6 3.947-3.744 3.454-3.58 2.634-3.744 1.645-3.582.822-4.4.822h-7.652l-4.884-.822h-6.18l6.832-5.1 1.954-6.414 2.279-8.223 1.791-5.756 2.116-7.894 1.954-7.73h-4.973" fill="none" stroke="#880e4f" stroke-width="6" stroke-dasharray="34.41619793659752,175.19692557857908" stroke-dashoffset="209.613124"/><path d="M1293.939 49.756c-.582-.084-1.152-.235-1.7-.449-.596-.328-1.164-.704-1.7-1.123l-2.293-2.808-1.465-3.125-.977-3.783v-4.441l.977-2.8 1.465-3.289 1.465-3.125 2.116-2.467 1.954-2.3 3.093-2.467 2.93-2.138 2.442-1.645 3.419-1.48L1309.89 11l4.884-.658h4.4l3.582.658 3.744 1.316 3.582 1.48 2.442 1.645 2.6 2.138 2.116 2.467 1.3 2.3 1.3 4.441.651 5.263-.651 5.756-1.3 5.1-2.116 4.77-2.6 3.947-3.744 3.454-3.58 2.634-3.744 1.645-3.582.822-4.4.822h-7.652l-4.884-.822h-6.18l6.832-5.1 1.954-6.414 2.279-8.223 1.791-5.756 2.116-7.894 1.954-7.73h-4.973" fill="none" stroke="#880e4f" stroke-width="6" stroke-dasharray="41.60025218865123,168.01287132652536" stroke-dashoffset="209.613124"/><path d="M1384.939 49.756c-.582-.084-1.152-.235-1.7-.449-.596-.328-1.164-.704-1.7-1.123l-2.293-2.808-1.465-3.125-.977-3.783v-4.441l.977-2.8 1.465-3.289 1.465-3.125 2.116-2.467 1.954-2.3 3.093-2.467 2.93-2.138 2.442-1.645 3.419-1.48L1400.89 11l4.884-.658h4.4l3.582.658 3.744 1.316 3.582 1.48 2.442 1.645 2.6 2.138 2.116 2.467 1.3 2.3 1.3 4.441.651 5.263-.651 5.756-1.3 5.1-2.116 4.77-2.6 3.947-3.744 3.454-3.58 2.634-3.744 1.645-3.582.822-4.4.822h-7.652l-4.884-.822h-6.18l6.832-5.1 1.954-6.414 2.279-8.223 1.791-5.756 2.116-7.894 1.954-7.73h-4.973" fill="none" stroke="#880e4f" stroke-width="6" stroke-dasharray="49.59181561186268,160.02130790331393" stroke-dashoffset="209.613124"/><path d="M1475.939 49.756c-.582-.084-1.152-.235-1.7-.449-.596-.328-1.164-.704-1.7-1.123l-2.293-2.808-1.465-3.125-.977-3.783v-4.441l.977-2.8 1.465-3.289 1.465-3.125 2.116-2.467 1.954-2.3 3.093-2.467 2.93-2.138 2.442-1.645 3.419-1.48L1491.89 11l4.884-.658h4.4l3.582.658 3.744 1.316 3.582 1.48 2.442 1.645 2.6 2.138 2.116 2.467 1.3 2.3 1.3 4.441.651 5.263-.651 5.756-1.3 5.1-2.116 4.77-2.6 3.947-3.744 3.454-3.58 2.634-3.744 1.645-3.582.822-4.4.822h-7.652l-4.884-.822h-6.18l6.832-5.1 1.954-6.414 2.279-8.223 1.791-5.756 2.116-7.894 1.954-7.73h-4.973" fill="none" stroke="#880e4f" stroke-width="6" stroke-dasharray="58.28367044715946,151.32945306801716" stroke-dashoffset="209.613124"/><path d="M1566.939 49.756c-.582-.084-1.152-.235-1.7-.449-.596-.328-1.164-.704-1.7-1.123l-2.293-2.808-1.465-3.125-.977-3.783v-4.441l.977-2.8 1.465-3.289 1.465-3.125 2.116-2.467 1.954-2.3 3.093-2.467 2.93-2.138 2.442-1.645 3.419-1.48L1582.89 11l4.884-.658h4.4l3.582.658 3.744 1.316 3.582 1.48 2.442 1.645 2.6 2.138 2.116 2.467 1.3 2.3 1.3 4.441.651 5.263-.651 5.756-1.3 5.1-2.116 4.77-2.6 3.947-3.744 3.454-3.58 2.634-3.744 1.645-3.582.822-4.4.822h-7.652l-4.884-.822h-6.18l6.832-5.1 1.954-6.414 2.279-8.223 1.791-5.756 2.116-7.894 1.954-7.73h-4.973" fill="none" stroke="#880e4f" stroke-width="6" stroke-dasharray="67.49501148462406,142.11811203055254" stroke-dashoffset="209.613124"/><path d="M1657.939 49.756c-.582-.084-1.152-.235-1.7-.449-.596-.328-1.164-.704-1.7-1.123l-2.293-2.808-1.465-3.125-.977-3.783v-4.441l.977-2.8 1.465-3.289 1.465-3.125 2.116-2.467 1.954-2.3 3.093-2.467 2.93-2.138 2.442-1.645 3.419-1.48L1673.89 11l4.884-.658h4.4l3.582.658 3.744 1.316 3.582 1.48 2.442 1.645 2.6 2.138 2.116 2.467 1.3 2.3 1.3 4.441.651 5.263-.651 5.756-1.3 5.1-2.116 4.77-2.6 3.947-3.744 3.454-3.58 2.634-3.744 1.645-3.582.822-4.4.822h-7.652l-4.884-.822h-6.18l6.832-5.1 1.954-6.414 2.279-8.223 1.791-5.756 2.116-7.894 1.954-7.73h-4.973" fill="none" stroke="#880e4f" stroke-width="6" stroke-dasharray="76.9900006675457,132.6231228476309" stroke-dashoffset="209.613124"/><path d="M1748.939 49.756c-.582-.084-1.152-.235-1.7-.449-.596-.328-1.164-.704-1.7-1.123l-2.293-2.808-1.465-3.125-.977-3.783v-4.441l.977-2.8 1.465-3.289 1.465-3.125 2.116-2.467 1.954-2.3 3.093-2.467 2.93-2.138 2.442-1.645 3.419-1.48L1764.89 11l4.884-.658h4.4l3.582.658 3.744 1.316 3.582 1.48 2.442 1.645 2.6 2.138 2.116 2.467 1.3 2.3 1.3 4.441.651 5.263-.651 5.756-1.3 5.1-2.116 4.77-2.6 3.947-3.744 3.454-3.58 2.634-3.744 1.645-3.582.822-4.4.822h-7.652l-4.884-.822h-6.18l6.832-5.1 1.954-6.414 2.279-8.223 1.791-5.756 2.116-7.894 1.954-7.73h-4.973" fill="none" stroke="#880e4f" stroke-width="6" stroke-dasharray="86.51603794242723,123.09708557274935" stroke-dashoffset="209.613124"/><path d="M1839.939 49.756c-.582-.084-1.152-.235-1.7-.449-.596-.328-1.164-.704-1.7-1.123l-2.293-2.808-1.465-3.125-.977-3.783v-4.441l.977-2.8 1.465-3.289 1.465-3.125 2.116-2.467 1.954-2.3 3.093-2.467 2.93-2.138 2.442-1.645 3.419-1.48L1855.89 11l4.884-.658h4.4l3.582.658 3.744 1.316 3.582 1.48 2.442 1.645 2.6 2.138 2.116 2.467 1.3 2.3 1.3 4.441.651 5.263-.651 5.756-1.3 5.1-2.116 4.77-2.6 3.947-3.744 3.454-3.58 2.634-3.744 1.645-3.582.822-4.4.822h-7.652l-4.884-.822h-6.18l6.832-5.1 1.954-6.414 2.279-8.223 1.791-5.756 2.116-7.894 1.954-7.73h-4.973" fill="none" stroke="#880e4f" stroke-width="6" stroke-dasharray="95.84596541576327,113.76715809941332" stroke-dashoffset="209.613124"/><path d="M1930.939 49.756c-.582-.084-1.152-.235-1.7-.449-.596-.328-1.164-.704-1.7-1.123l-2.293-2.808-1.465-3.125-.977-3.783v-4.441l.977-2.8 1.465-3.289 1.465-3.125 2.116-2.467 1.954-2.3 3.093-2.467 2.93-2.138 2.442-1.645 3.419-1.48L1946.89 11l4.884-.658h4.4l3.582.658 3.744 1.316 3.582 1.48 2.442 1.645 2.6 2.138 2.116 2.467 1.3 2.3 1.3 4.441.651 5.263-.651 5.756-1.3 5.1-2.116 4.77-2.6 3.947-3.744 3.454-3.58 2.634-3.744 1.645-3.582.822-4.4.822h-7.652l-4.884-.822h-6.18l6.832-5.1 1.954-6.414 2.279-8.223 1.791-5.756 2.116-7.894 1.954-7.73h-4.973" fill="none" stroke="#880e4f" stroke-width="6" stroke-dasharray="104.80656175758827,104.80656175758833" stroke-dashoffset="209.613124"/><path d="M2021.939 49.756c-.582-.084-1.152-.235-1.7-.449-.596-.328-1.164-.704-1.7-1.123l-2.293-2.808-1.465-3.125-.977-3.783v-4.441l.977-2.8 1.465-3.289 1.465-3.125 2.116-2.467 1.954-2.3 3.093-2.467 2.93-2.138 2.442-1.645 3.419-1.48L2037.89 11l4.884-.658h4.4l3.582.658 3.744 1.316 3.582 1.48 2.442 1.645 2.6 2.138 2.116 2.467 1.3 2.3 1.3 4.441.651 5.263-.651 5.756-1.3 5.1-2.116 4.77-2.6 3.947-3.744 3.454-3.58 2.634-3.744 1.645-3.582.822-4.4.822h-7.652l-4.884-.822h-6.18l6.832-5.1 1.954-6.414 2.279-8.223 1.791-5.756 2.116-7.894 1.954-7.73h-4.973" fill="none" stroke="#880e4f" stroke-width="6" stroke-dasharray="113.28654412530993,96.32657938986667" stroke-dashoffset="209.613124"/><path d="M2112.939 49.756c-.582-.084-1.152-.235-1.7-.449-.596-.328-1.164-.704-1.7-1.123l-2.293-2.808-1.465-3.125-.977-3.783v-4.441l.977-2.8 1.465-3.289 1.465-3.125 2.116-2.467 1.954-2.3 3.093-2.467 2.93-2.138 2.442-1.645 3.419-1.48L2128.89 11l4.884-.658h4.4l3.582.658 3.744 1.316 3.582 1.48 2.442 1.645 2.6 2.138 2.116 2.467 1.3 2.3 1.3 4.441.651 5.263-.651 5.756-1.3 5.1-2.116 4.77-2.6 3.947-3.744 3.454-3.58 2.634-3.744 1.645-3.582.822-4.4.822h-7.652l-4.884-.822h-6.18l6.832-5.1 1.954-6.414 2.279-8.223 1.791-5.756 2.116-7.894 1.954-7.73h-4.973" fill="none" stroke="#880e4f" stroke-width="6" stroke-dasharray="121.22904466696109,88.38407884821551" stroke-dashoffset="209.613124"/><path d="M2203.939 49.756c-.582-.084-1.152-.235-1.7-.449-.596-.328-1.164-.704-1.7-1.123l-2.293-2.808-1.465-3.125-.977-3.783v-4.441l.977-2.8 1.465-3.289 1.465-3.125 2.116-2.467 1.954-2.3 3.093-2.467 2.93-2.138 2.442-1.645 3.419-1.48L2219.89 11l4.884-.658h4.4l3.582.658 3.744 1.316 3.582 1.48 2.442 1.645 2.6 2.138 2.116 2.467 1.3 2.3 1.3 4.441.651 5.263-.651 5.756-1.3 5.1-2.116 4.77-2.6 3.947-3.744 3.454-3.58 2.634-3.744 1.645-3.582.822-4.4.822h-7.652l-4.884-.822h-6.18l6.832-5.1 1.954-6.414 2.279-8.223 1.791-5.756 2.116-7.894 1.954-7.73h-4.973" fill="none" stroke="#880e4f" stroke-width="6" stroke-dasharray="128.61751138831323,80.99561212686336" stroke-dashoffset="209.613124"/><path d="M2294.939 49.756c-.582-.084-1.152-.235-1.7-.449-.596-.328-1.164-.704-1.7-1.123l-2.293-2.808-1.465-3.125-.977-3.783v-4.441l.977-2.8 1.465-3.289 1.465-3.125 2.116-2.467 1.954-2.3 3.093-2.467 2.93-2.138 2.442-1.645 3.419-1.48L2310.89 11l4.884-.658h4.4l3.582.658 3.744 1.316 3.582 1.48 2.442 1.645 2.6 2.138 2.116 2.467 1.3 2.3 1.3 4.441.651 5.263-.651 5.756-1.3 5.1-2.116 4.77-2.6 3.947-3.744 3.454-3.58 2.634-3.744 1.645-3.582.822-4.4.822h-7.652l-4.884-.822h-6.18l6.832-5.1 1.954-6.414 2.279-8.223 1.791-5.756 2.116-7.894 1.954-7.73h-4.973" fill="none" stroke="#880e4f" stroke-width="6" stroke-dasharray="135.46166753671866,74.15145597845795" stroke-dashoffset="209.613124"/><path d="M2385.939 49.756c-.582-.084-1.152-.235-1.7-.449-.596-.328-1.164-.704-1.7-1.123l-2.293-2.808-1.465-3.125-.977-3.783v-4.441l.977-2.8 1.465-3.289 1.465-3.125 2.116-2.467 1.954-2.3 3.093-2.467 2.93-2.138 2.442-1.645 3.419-1.48L2401.89 11l4.884-.658h4.4l3.582.658 3.744 1.316 3.582 1.48 2.442 1.645 2.6 2.138 2.116 2.467 1.3 2.3 1.3 4.441.651 5.263-.651 5.756-1.3 5.1-2.116 4.77-2.6 3.947-3.744 3.454-3.58 2.634-3.744 1.645-3.582.822-4.4.822h-7.652l-4.884-.822h-6.18l6.832-5.1 1.954-6.414 2.279-8.223 1.791-5.756 2.116-7.894 1.954-7.73h-4.973" fill="none" stroke="#880e4f" stroke-width="6" stroke-dasharray="141.78645338602564,67.82667012915095" stroke-dashoffset="209.613124"/><path d="M2476.939 49.756c-.582-.084-1.152-.235-1.7-.449-.596-.328-1.164-.704-1.7-1.123l-2.293-2.808-1.465-3.125-.977-3.783v-4.441l.977-2.8 1.465-3.289 1.465-3.125 2.116-2.467 1.954-2.3 3.093-2.467 2.93-2.138 2.442-1.645 3.419-1.48L2492.89 11l4.884-.658h4.4l3.582.658 3.744 1.316 3.582 1.48 2.442 1.645 2.6 2.138 2.116 2.467 1.3 2.3 1.3 4.441.651 5.263-.651 5.756-1.3 5.1-2.116 4.77-2.6 3.947-3.744 3.454-3.58 2.634-3.744 1.645-3.582.822-4.4.822h-7.652l-4.884-.822h-6.18l6.832-5.1 1.954-6.414 2.279-8.223 1.791-5.756 2.116-7.894 1.954-7.73h-4.973" fill="none" stroke="#880e4f" stroke-width="6" stroke-dasharray="147.62438885345037,61.98873466172623" stroke-dashoffset="209.613124"/><path d="M2567.939 49.756c-.582-.084-1.152-.235-1.7-.449-.596-.328-1.164-.704-1.7-1.123l-2.293-2.808-1.465-3.125-.977-3.783v-4.441l.977-2.8 1.465-3.289 1.465-3.125 2.116-2.467 1.954-2.3 3.093-2.467 2.93-2.138 2.442-1.645 3.419-1.48L2583.89 11l4.884-.658h4.4l3.582.658 3.744 1.316 3.582 1.48 2.442 1.645 2.6 2.138 2.116 2.467 1.3 2.3 1.3 4.441.651 5.263-.651 5.756-1.3 5.1-2.116 4.77-2.6 3.947-3.744 3.454-3.58 2.634-3.744 1.645-3.582.822-4.4.822h-7.652l-4.884-.822h-6.18l6.832-5.1 1.954-6.414 2.279-8.223 1.791-5.756 2.116-7.894 1.954-7.73h-4.973" fill="none" stroke="#880e4f" stroke-width="6" stroke-dasharray="153.010745295752,56.60237821942459" stroke-dashoffset="209.613124"/><path d="M2658.939 49.756c-.582-.084-1.152-.235-1.7-.449-.596-.328-1.164-.704-1.7-1.123l-2.293-2.808-1.465-3.125-.977-3.783v-4.441l.977-2.8 1.465-3.289 1.465-3.125 2.116-2.467 1.954-2.3 3.093-2.467 2.93-2.138 2.442-1.645 3.419-1.48L2674.89 11l4.884-.658h4.4l3.582.658 3.744 1.316 3.582 1.48 2.442 1.645 2.6 2.138 2.116 2.467 1.3 2.3 1.3 4.441.651 5.263-.651 5.756-1.3 5.1-2.116 4.77-2.6 3.947-3.744 3.454-3.58 2.634-3.744 1.645-3.582.822-4.4.822h-7.652l-4.884-.822h-6.18l6.832-5.1 1.954-6.414 2.279-8.223 1.791-5.756 2.116-7.894 1.954-7.73h-4.973" fill="none" stroke="#880e4f" stroke-width="6" stroke-dasharray="157.98070706544118,51.63241644973542" stroke-dashoffset="209.613124"/><path d="M2749.939 49.756c-.582-.084-1.152-.235-1.7-.449-.596-.328-1.164-.704-1.7-1.123l-2.293-2.808-1.465-3.125-.977-3.783v-4.441l.977-2.8 1.465-3.289 1.465-3.125 2.116-2.467 1.954-2.3 3.093-2.467 2.93-2.138 2.442-1.645 3.419-1.48L2765.89 11l4.884-.658h4.4l3.582.658 3.744 1.316 3.582 1.48 2.442 1.645 2.6 2.138 2.116 2.467 1.3 2.3 1.3 4.441.651 5.263-.651 5.756-1.3 5.1-2.116 4.77-2.6 3.947-3.744 3.454-3.58 2.634-3.744 1.645-3.582.822-4.4.822h-7.652l-4.884-.822h-6.18l6.832-5.1 1.954-6.414 2.279-8.223 1.791-5.756 2.116-7.894 1.954-7.73h-4.973" fill="none" stroke="#880e4f" stroke-width="6" stroke-dasharray="162.56782890059185,47.04529461458473" stroke-dashoffset="209.613124"/><path d="M2840.939 49.756c-.582-.084-1.152-.235-1.7-.449-.596-.328-1.164-.704-1.7-1.123l-2.293-2.808-1.465-3.125-.977-3.783v-4.441l.977-2.8 1.465-3.289 1.465-3.125 2.116-2.467 1.954-2.3 3.093-2.467 2.93-2.138 2.442-1.645 3.419-1.48L2856.89 11l4.884-.658h4.4l3.582.658 3.744 1.316 3.582 1.48 2.442 1.645 2.6 2.138 2.116 2.467 1.3 2.3 1.3 4.441.651 5.263-.651 5.756-1.3 5.1-2.116 4.77-2.6 3.947-3.744 3.454-3.58 2.634-3.744 1.645-3.582.822-4.4.822h-7.652l-4.884-.822h-6.18l6.832-5.1 1.954-6.414 2.279-8.223 1.791-5.756 2.116-7.894 1.954-7.73h-4.973" fill="none" stroke="#880e4f" stroke-width="6" stroke-dasharray="166.80329136630002,42.80983214887657" stroke-dashoffset="209.613124"/><path d="M2931.939 49.756c-.582-.084-1.152-.235-1.7-.449-.596-.328-1.164-.704-1.7-1.123l-2.293-2.808-1.465-3.125-.977-3.783v-4.441l.977-2.8 1.465-3.289 1.465-3.125 2.116-2.467 1.954-2.3 3.093-2.467 2.93-2.138 2.442-1.645 3.419-1.48L2947.89 11l4.884-.658h4.4l3.582.658 3.744 1.316 3.582 1.48 2.442 1.645 2.6 2.138 2.116 2.467 1.3 2.3 1.3 4.441.651 5.263-.651 5.756-1.3 5.1-2.116 4.77-2.6 3.947-3.744 3.454-3.58 2.634-3.744 1.645-3.582.822-4.4.822h-7.652l-4.884-.822h-6.18l6.832-5.1 1.954-6.414 2.279-8.223 1.791-5.756 2.116-7.894 1.954-7.73h-4.973" fill="none" stroke="#880e4f" stroke-width="6" stroke-dasharray="170.71562619028893,38.89749732488766" stroke-dashoffset="209.613124"/><path d="M3022.939 49.756c-.582-.084-1.152-.235-1.7-.449-.596-.328-1.164-.704-1.7-1.123l-2.293-2.808-1.465-3.125-.977-3.783v-4.441l.977-2.8 1.465-3.289 1.465-3.125 2.116-2.467 1.954-2.3 3.093-2.467 2.93-2.138 2.442-1.645 3.419-1.48L3038.89 11l4.884-.658h4.4l3.582.658 3.744 1.316 3.582 1.48 2.442 1.645 2.6 2.138 2.116 2.467 1.3 2.3 1.3 4.441.651 5.263-.651 5.756-1.3 5.1-2.116 4.77-2.6 3.947-3.744 3.454-3.58 2.634-3.744 1.645-3.582.822-4.4.822h-7.652l-4.884-.822h-6.18l6.832-5.1 1.954-6.414 2.279-8.223 1.791-5.756 2.116-7.894 1.954-7.73h-4.973" fill="none" stroke="#880e4f" stroke-width="6" stroke-dasharray="174.33070571537516,35.282417799801436" stroke-dashoffset="209.613124"/><path d="M3113.939 49.756c-.582-.084-1.152-.235-1.7-.449-.596-.328-1.164-.704-1.7-1.123l-2.293-2.808-1.465-3.125-.977-3.783v-4.441l.977-2.8 1.465-3.289 1.465-3.125 2.116-2.467 1.954-2.3 3.093-2.467 2.93-2.138 2.442-1.645 3.419-1.48L3129.89 11l4.884-.658h4.4l3.582.658 3.744 1.316 3.582 1.48 2.442 1.645 2.6 2.138 2.116 2.467 1.3 2.3 1.3 4.441.651 5.263-.651 5.756-1.3 5.1-2.116 4.77-2.6 3.947-3.744 3.454-3.58 2.634-3.744 1.645-3.582.822-4.4.822h-7.652l-4.884-.822h-6.18l6.832-5.1 1.954-6.414 2.279-8.223 1.791-5.756 2.116-7.894 1.954-7.73h-4.973" fill="none" stroke="#880e4f" stroke-width="6" stroke-dasharray="177.67187173894834,31.94125177622826" stroke-dashoffset="209.613124"/><path d="M3204.939 49.756c-.582-.084-1.152-.235-1.7-.449-.596-.328-1.164-.704-1.7-1.123l-2.293-2.808-1.465-3.125-.977-3.783v-4.441l.977-2.8 1.465-3.289 1.465-3.125 2.116-2.467 1.954-2.3 3.093-2.467 2.93-2.138 2.442-1.645 3.419-1.48L3220.89 11l4.884-.658h4.4l3.582.658 3.744 1.316 3.582 1.48 2.442 1.645 2.6 2.138 2.116 2.467 1.3 2.3 1.3 4.441.651 5.263-.651 5.756-1.3 5.1-2.116 4.77-2.6 3.947-3.744 3.454-3.58 2.634-3.744 1.645-3.582.822-4.4.822h-7.652l-4.884-.822h-6.18l6.832-5.1 1.954-6.414 2.279-8.223 1.791-5.756 2.116-7.894 1.954-7.73h-4.973" fill="none" stroke="#880e4f" stroke-width="6" stroke-dasharray="180.7601302019492,28.85299331322739" stroke-dashoffset="209.613124"/><path d="M3295.939 49.756c-.582-.084-1.152-.235-1.7-.449-.596-.328-1.164-.704-1.7-1.123l-2.293-2.808-1.465-3.125-.977-3.783v-4.441l.977-2.8 1.465-3.289 1.465-3.125 2.116-2.467 1.954-2.3 3.093-2.467 2.93-2.138 2.442-1.645 3.419-1.48L3311.89 11l4.884-.658h4.4l3.582.658 3.744 1.316 3.582 1.48 2.442 1.645 2.6 2.138 2.116 2.467 1.3 2.3 1.3 4.441.651 5.263-.651 5.756-1.3 5.1-2.116 4.77-2.6 3.947-3.744 3.454-3.58 2.634-3.744 1.645-3.582.822-4.4.822h-7.652l-4.884-.822h-6.18l6.832-5.1 1.954-6.414 2.279-8.223 1.791-5.756 2.116-7.894 1.954-7.73h-4.973" fill="none" stroke="#880e4f" stroke-width="6" stroke-dasharray="183.61436959946295,25.998753915713657" stroke-dashoffset="209.613124"/><path d="M3386.939 49.756c-.582-.084-1.152-.235-1.7-.449-.596-.328-1.164-.704-1.7-1.123l-2.293-2.808-1.465-3.125-.977-3.783v-4.441l.977-2.8 1.465-3.289 1.465-3.125 2.116-2.467 1.954-2.3 3.093-2.467 2.93-2.138 2.442-1.645 3.419-1.48L3402.89 11l4.884-.658h4.4l3.582.658 3.744 1.316 3.582 1.48 2.442 1.645 2.6 2.138 2.116 2.467 1.3 2.3 1.3 4.441.651 5.263-.651 5.756-1.3 5.1-2.116 4.77-2.6 3.947-3.744 3.454-3.58 2.634-3.744 1.645-3.582.822-4.4.822h-7.652l-4.884-.822h-6.18l6.832-5.1 1.954-6.414 2.279-8.223 1.791-5.756 2.116-7.894 1.954-7.73h-4.973" fill="none" stroke="#880e4f" stroke-width="6" stroke-dasharray="186.25157987187694,23.36154364329967" stroke-dashoffset="209.613124"/><path d="M3477.939 49.756c-.582-.084-1.152-.235-1.7-.449-.596-.328-1.164-.704-1.7-1.123l-2.293-2.808-1.465-3.125-.977-3.783v-4.441l.977-2.8 1.465-3.289 1.465-3.125 2.116-2.467 1.954-2.3 3.093-2.467 2.93-2.138 2.442-1.645 3.419-1.48L3493.89 11l4.884-.658h4.4l3.582.658 3.744 1.316 3.582 1.48 2.442 1.645 2.6 2.138 2.116 2.467 1.3 2.3 1.3 4.441.651 5.263-.651 5.756-1.3 5.1-2.116 4.77-2.6 3.947-3.744 3.454-3.58 2.634-3.744 1.645-3.582.822-4.4.822h-7.652l-4.884-.822h-6.18l6.832-5.1 1.954-6.414 2.279-8.223 1.791-5.756 2.116-7.894 1.954-7.73h-4.973" fill="none" stroke="#880e4f" stroke-width="6" stroke-dasharray="188.68705970135775,20.92606381381885" stroke-dashoffset="209.613124"/><path d="M3568.939 49.756c-.582-.084-1.152-.235-1.7-.449-.596-.328-1.164-.704-1.7-1.123l-2.293-2.808-1.465-3.125-.977-3.783v-4.441l.977-2.8 1.465-3.289 1.465-3.125 2.116-2.467 1.954-2.3 3.093-2.467 2.93-2.138 2.442-1.645 3.419-1.48L3584.89 11l4.884-.658h4.4l3.582.658 3.744 1.316 3.582 1.48 2.442 1.645 2.6 2.138 2.116 2.467 1.3 2.3 1.3 4.441.651 5.263-.651 5.756-1.3 5.1-2.116 4.77-2.6 3.947-3.744 3.454-3.58 2.634-3.744 1.645-3.582.822-4.4.822h-7.652l-4.884-.822h-6.18l6.832-5.1 1.954-6.414 2.279-8.223 1.791-5.756 2.116-7.894 1.954-7.73h-4.973" fill="none" stroke="#880e4f" stroke-width="6" stroke-dasharray="190.93460662129522,18.678516893881373" stroke-dashoffset="209.613124"/><path d="M3659.939 49.756c-.582-.084-1.152-.235-1.7-.449-.596-.328-1.164-.704-1.7-1.123l-2.293-2.808-1.465-3.125-.977-3.783v-4.441l.977-2.8 1.465-3.289 1.465-3.125 2.116-2.467 1.954-2.3 3.093-2.467 2.93-2.138 2.442-1.645 3.419-1.48L3675.89 11l4.884-.658h4.4l3.582.658 3.744 1.316 3.582 1.48 2.442 1.645 2.6 2.138 2.116 2.467 1.3 2.3 1.3 4.441.651 5.263-.651 5.756-1.3 5.1-2.116 4.77-2.6 3.947-3.744 3.454-3.58 2.634-3.744 1.645-3.582.822-4.4.822h-7.652l-4.884-.822h-6.18l6.832-5.1 1.954-6.414 2.279-8.223 1.791-5.756 2.116-7.894 1.954-7.73h-4.973" fill="none" stroke="#880e4f" stroke-width="6" stroke-dasharray="193.00668802176014,16.60643549341644" stroke-dashoffset="209.613124"/><path d="M3750.939 49.756c-.582-.084-1.152-.235-1.7-.449-.596-.328-1.164-.704-1.7-1.123l-2.293-2.808-1.465-3.125-.977-3.783v-4.441l.977-2.8 1.465-3.289 1.465-3.125 2.116-2.467 1.954-2.3 3.093-2.467 2.93-2.138 2.442-1.645 3.419-1.48L3766.89 11l4.884-.658h4.4l3.582.658 3.744 1.316 3.582 1.48 2.442 1.645 2.6 2.138 2.116 2.467 1.3 2.3 1.3 4.441.651 5.263-.651 5.756-1.3 5.1-2.116 4.77-2.6 3.947-3.744 3.454-3.58 2.634-3.744 1.645-3.582.822-4.4.822h-7.652l-4.884-.822h-6.18l6.832-5.1 1.954-6.414 2.279-8.223 1.791-5.756 2.116-7.894 1.954-7.73h-4.973" fill="none" stroke="#880e4f" stroke-width="6" stroke-dasharray="194.91459314325618,14.698530371920407" stroke-dashoffset="209.613124"/><path d="M3841.939 49.756c-.582-.084-1.152-.235-1.7-.449-.596-.328-1.164-.704-1.7-1.123l-2.293-2.808-1.465-3.125-.977-3.783v-4.441l.977-2.8 1.465-3.289 1.465-3.125 2.116-2.467 1.954-2.3 3.093-2.467 2.93-2.138 2.442-1.645 3.419-1.48L3857.89 11l4.884-.658h4.4l3.582.658 3.744 1.316 3.582 1.48 2.442 1.645 2.6 2.138 2.116 2.467 1.3 2.3 1.3 4.441.651 5.263-.651 5.756-1.3 5.1-2.116 4.77-2.6 3.947-3.744 3.454-3.58 2.634-3.744 1.645-3.582.822-4.4.822h-7.652l-4.884-.822h-6.18l6.832-5.1 1.954-6.414 2.279-8.223 1.791-5.756 2.116-7.894 1.954-7.73h-4.973" fill="none" stroke="#880e4f" stroke-width="6" stroke-dasharray="196.66856718259857,12.944556332578033" stroke-dashoffset="209.613124"/><path d="M3932.939 49.756c-.582-.084-1.152-.235-1.7-.449-.596-.328-1.164-.704-1.7-1.123l-2.293-2.808-1.465-3.125-.977-3.783v-4.441l.977-2.8 1.465-3.289 1.465-3.125 2.116-2.467 1.954-2.3 3.093-2.467 2.93-2.138 2.442-1.645 3.419-1.48L3948.89 11l4.884-.658h4.4l3.582.658 3.744 1.316 3.582 1.48 2.442 1.645 2.6 2.138 2.116 2.467 1.3 2.3 1.3 4.441.651 5.263-.651 5.756-1.3 5.1-2.116 4.77-2.6 3.947-3.744 3.454-3.58 2.634-3.744 1.645-3.582.822-4.4.822h-7.652l-4.884-.822h-6.18l6.832-5.1 1.954-6.414 2.279-8.223 1.791-5.756 2.116-7.894 1.954-7.73h-4.973" fill="none" stroke="#880e4f" stroke-width="6" stroke-dasharray="198.27792910139897,11.335194413777627" stroke-dashoffset="209.613124"/><path d="M4023.939 49.756c-.582-.084-1.152-.235-1.7-.449-.596-.328-1.164-.704-1.7-1.123l-2.293-2.808-1.465-3.125-.977-3.783v-4.441l.977-2.8 1.465-3.289 1.465-3.125 2.116-2.467 1.954-2.3 3.093-2.467 2.93-2.138 2.442-1.645 3.419-1.48L4039.89 11l4.884-.658h4.4l3.582.658 3.744 1.316 3.582 1.48 2.442 1.645 2.6 2.138 2.116 2.467 1.3 2.3 1.3 4.441.651 5.263-.651 5.756-1.3 5.1-2.116 4.77-2.6 3.947-3.744 3.454-3.58 2.634-3.744 1.645-3.582.822-4.4.822h-7.652l-4.884-.822h-6.18l6.832-5.1 1.954-6.414 2.279-8.223 1.791-5.756 2.116-7.894 1.954-7.73h-4.973" fill="none" stroke="#880e4f" stroke-width="6" stroke-dasharray="199.75117487541613,9.86194863976047" stroke-dashoffset="209.613124"/><path d="M4114.939 49.756c-.582-.084-1.152-.235-1.7-.449-.596-.328-1.164-.704-1.7-1.123l-2.293-2.808-1.465-3.125-.977-3.783v-4.441l.977-2.8 1.465-3.289 1.465-3.125 2.116-2.467 1.954-2.3 3.093-2.467 2.93-2.138 2.442-1.645 3.419-1.48L4130.89 11l4.884-.658h4.4l3.582.658 3.744 1.316 3.582 1.48 2.442 1.645 2.6 2.138 2.116 2.467 1.3 2.3 1.3 4.441.651 5.263-.651 5.756-1.3 5.1-2.116 4.77-2.6 3.947-3.744 3.454-3.58 2.634-3.744 1.645-3.582.822-4.4.822h-7.652l-4.884-.822h-6.18l6.832-5.1 1.954-6.414 2.279-8.223 1.791-5.756 2.116-7.894 1.954-7.73h-4.973" fill="none" stroke="#880e4f" stroke-width="6" stroke-dasharray="201.09606789762626,8.517055617550344" stroke-dashoffset="209.613124"/><path d="M4205.939 49.756c-.582-.084-1.152-.235-1.7-.449-.596-.328-1.164-.704-1.7-1.123l-2.293-2.808-1.465-3.125-.977-3.783v-4.441l.977-2.8 1.465-3.289 1.465-3.125 2.116-2.467 1.954-2.3 3.093-2.467 2.93-2.138 2.442-1.645 3.419-1.48L4221.89 11l4.884-.658h4.4l3.582.658 3.744 1.316 3.582 1.48 2.442 1.645 2.6 2.138 2.116 2.467 1.3 2.3 1.3 4.441.651 5.263-.651 5.756-1.3 5.1-2.116 4.77-2.6 3.947-3.744 3.454-3.58 2.634-3.744 1.645-3.582.822-4.4.822h-7.652l-4.884-.822h-6.18l6.832-5.1 1.954-6.414 2.279-8.223 1.791-5.756 2.116-7.894 1.954-7.73h-4.973" fill="none" stroke="#880e4f" stroke-width="6" stroke-dasharray="202.31971813463852,7.29340538053808" stroke-dashoffset="209.613124"/><path d="M4296.939 49.756c-.582-.084-1.152-.235-1.7-.449-.596-.328-1.164-.704-1.7-1.123l-2.293-2.808-1.465-3.125-.977-3.783v-4.441l.977-2.8 1.465-3.289 1.465-3.125 2.116-2.467 1.954-2.3 3.093-2.467 2.93-2.138 2.442-1.645 3.419-1.48L4312.89 11l4.884-.658h4.4l3.582.658 3.744 1.316 3.582 1.48 2.442 1.645 2.6 2.138 2.116 2.467 1.3 2.3 1.3 4.441.651 5.263-.651 5.756-1.3 5.1-2.116 4.77-2.6 3.947-3.744 3.454-3.58 2.634-3.744 1.645-3.582.822-4.4.822h-7.652l-4.884-.822h-6.18l6.832-5.1 1.954-6.414 2.279-8.223 1.791-5.756 2.116-7.894 1.954-7.73h-4.973" fill="none" stroke="#880e4f" stroke-width="6" stroke-dasharray="203.42865148431386,6.184472030862736" stroke-dashoffset="209.613124"/><path d="M4387.939 49.756c-.582-.084-1.152-.235-1.7-.449-.596-.328-1.164-.704-1.7-1.123l-2.293-2.808-1.465-3.125-.977-3.783v-4.441l.977-2.8 1.465-3.289 1.465-3.125 2.116-2.467 1.954-2.3 3.093-2.467 2.93-2.138 2.442-1.645 3.419-1.48L4403.89 11l4.884-.658h4.4l3.582.658 3.744 1.316 3.582 1.48 2.442 1.645 2.6 2.138 2.116 2.467 1.3 2.3 1.3 4.441.651 5.263-.651 5.756-1.3 5.1-2.116 4.77-2.6 3.947-3.744 3.454-3.58 2.634-3.744 1.645-3.582.822-4.4.822h-7.652l-4.884-.822h-6.18l6.832-5.1 1.954-6.414 2.279-8.223 1.791-5.756 2.116-7.894 1.954-7.73h-4.973" fill="none" stroke="#880e4f" stroke-width="6" stroke-dasharray="204.42887061986158,5.184252895315017" stroke-dashoffset="209.613124"/><path d="M4478.939 49.756c-.582-.084-1.152-.235-1.7-.449-.596-.328-1.164-.704-1.7-1.123l-2.293-2.808-1.465-3.125-.977-3.783v-4.441l.977-2.8 1.465-3.289 1.465-3.125 2.116-2.467 1.954-2.3 3.093-2.467 2.93-2.138 2.442-1.645 3.419-1.48L4494.89 11l4.884-.658h4.4l3.582.658 3.744 1.316 3.582 1.48 2.442 1.645 2.6 2.138 2.116 2.467 1.3 2.3 1.3 4.441.651 5.263-.651 5.756-1.3 5.1-2.116 4.77-2.6 3.947-3.744 3.454-3.58 2.634-3.744 1.645-3.582.822-4.4.822h-7.652l-4.884-.822h-6.18l6.832-5.1 1.954-6.414 2.279-8.223 1.791-5.756 2.116-7.894 1.954-7.73h-4.973" fill="none" stroke="#880e4f" stroke-width="6" stroke-dasharray="205.325908447265,4.287215067911597" stroke-dashoffset="209.613124"/><path d="M4569.939 49.756c-.582-.084-1.152-.235-1.7-.449-.596-.328-1.164-.704-1.7-1.123l-2.293-2.808-1.465-3.125-.977-3.783v-4.441l.977-2.8 1.465-3.289 1.465-3.125 2.116-2.467 1.954-2.3 3.093-2.467 2.93-2.138 2.442-1.645 3.419-1.48L4585.89 11l4.884-.658h4.4l3.582.658 3.744 1.316 3.582 1.48 2.442 1.645 2.6 2.138 2.116 2.467 1.3 2.3 1.3 4.441.651 5.263-.651 5.756-1.3 5.1-2.116 4.77-2.6 3.947-3.744 3.454-3.58 2.634-3.744 1.645-3.582.822-4.4.822h-7.652l-4.884-.822h-6.18l6.832-5.1 1.954-6.414 2.279-8.223 1.791-5.756 2.116-7.894 1.954-7.73h-4.973" fill="none" stroke="#880e4f" stroke-width="6" stroke-dasharray="206.1248751560891,3.488248359087483" stroke-dashoffset="209.613124"/><path d="M4660.939 49.756c-.582-.084-1.152-.235-1.7-.449-.596-.328-1.164-.704-1.7-1.123l-2.293-2.808-1.465-3.125-.977-3.783v-4.441l.977-2.8 1.465-3.289 1.465-3.125 2.116-2.467 1.954-2.3 3.093-2.467 2.93-2.138 2.442-1.645 3.419-1.48L4676.89 11l4.884-.658h4.4l3.582.658 3.744 1.316 3.582 1.48 2.442 1.645 2.6 2.138 2.116 2.467 1.3 2.3 1.3 4.441.651 5.263-.651 5.756-1.3 5.1-2.116 4.77-2.6 3.947-3.744 3.454-3.58 2.634-3.744 1.645-3.582.822-4.4.822h-7.652l-4.884-.822h-6.18l6.832-5.1 1.954-6.414 2.279-8.223 1.791-5.756 2.116-7.894 1.954-7.73h-4.973" fill="none" stroke="#880e4f" stroke-width="6" stroke-dasharray="206.83049971171076,2.7826238034658366" stroke-dashoffset="209.613124"/><path d="M4751.939 49.756c-.582-.084-1.152-.235-1.7-.449-.596-.328-1.164-.704-1.7-1.123l-2.293-2.808-1.465-3.125-.977-3.783v-4.441l.977-2.8 1.465-3.289 1.465-3.125 2.116-2.467 1.954-2.3 3.093-2.467 2.93-2.138 2.442-1.645 3.419-1.48L4767.89 11l4.884-.658h4.4l3.582.658 3.744 1.316 3.582 1.48 2.442 1.645 2.6 2.138 2.116 2.467 1.3 2.3 1.3 4.441.651 5.263-.651 5.756-1.3 5.1-2.116 4.77-2.6 3.947-3.744 3.454-3.58 2.634-3.744 1.645-3.582.822-4.4.822h-7.652l-4.884-.822h-6.18l6.832-5.1 1.954-6.414 2.279-8.223 1.791-5.756 2.116-7.894 1.954-7.73h-4.973" fill="none" stroke="#880e4f" stroke-width="6" stroke-dasharray="207.4471665205112,2.165956994665397" stroke-dashoffset="209.613124"/><path d="M4842.939 49.756c-.582-.084-1.152-.235-1.7-.449-.596-.328-1.164-.704-1.7-1.123l-2.293-2.808-1.465-3.125-.977-3.783v-4.441l.977-2.8 1.465-3.289 1.465-3.125 2.116-2.467 1.954-2.3 3.093-2.467 2.93-2.138 2.442-1.645 3.419-1.48L4858.89 11l4.884-.658h4.4l3.582.658 3.744 1.316 3.582 1.48 2.442 1.645 2.6 2.138 2.116 2.467 1.3 2.3 1.3 4.441.651 5.263-.651 5.756-1.3 5.1-2.116 4.77-2.6 3.947-3.744 3.454-3.58 2.634-3.744 1.645-3.582.822-4.4.822h-7.652l-4.884-.822h-6.18l6.832-5.1 1.954-6.414 2.279-8.223 1.791-5.756 2.116-7.894 1.954-7.73h-4.973" fill="none" stroke="#880e4f" stroke-width="6" stroke-dasharray="207.97894789801327,1.634175617163324" stroke-dashoffset="209.613124"/><path d="M4933.939 49.756c-.582-.084-1.152-.235-1.7-.449-.596-.328-1.164-.704-1.7-1.123l-2.293-2.808-1.465-3.125-.977-3.783v-4.441l.977-2.8 1.465-3.289 1.465-3.125 2.116-2.467 1.954-2.3 3.093-2.467 2.93-2.138 2.442-1.645 3.419-1.48L4949.89 11l4.884-.658h4.4l3.582.658 3.744 1.316 3.582 1.48 2.442 1.645 2.6 2.138 2.116 2.467 1.3 2.3 1.3 4.441.651 5.263-.651 5.756-1.3 5.1-2.116 4.77-2.6 3.947-3.744 3.454-3.58 2.634-3.744 1.645-3.582.822-4.4.822h-7.652l-4.884-.822h-6.18l6.832-5.1 1.954-6.414 2.279-8.223 1.791-5.756 2.116-7.894 1.954-7.73h-4.973" fill="none" stroke="#880e4f" stroke-width="6" stroke-dasharray="208.42963288212394,1.1834906330526531" stroke-dashoffset="209.613124"/><path d="M5024.939 49.756c-.582-.084-1.152-.235-1.7-.449-.596-.328-1.164-.704-1.7-1.123l-2.293-2.808-1.465-3.125-.977-3.783v-4.441l.977-2.8 1.465-3.289 1.465-3.125 2.116-2.467 1.954-2.3 3.093-2.467 2.93-2.138 2.442-1.645 3.419-1.48L5040.89 11l4.884-.658h4.4l3.582.658 3.744 1.316 3.582 1.48 2.442 1.645 2.6 2.138 2.116 2.467 1.3 2.3 1.3 4.441.651 5.263-.651 5.756-1.3 5.1-2.116 4.77-2.6 3.947-3.744 3.454-3.58 2.634-3.744 1.645-3.582.822-4.4.822h-7.652l-4.884-.822h-6.18l6.832-5.1 1.954-6.414 2.279-8.223 1.791-5.756 2.116-7.894 1.954-7.73h-4.973" fill="none" stroke="#880e4f" stroke-width="6" stroke-dasharray="208.8027528580993,0.810370657077294" stroke-dashoffset="209.613124"/><path d="M5115.939 49.756c-.582-.084-1.152-.235-1.7-.449-.596-.328-1.164-.704-1.7-1.123l-2.293-2.808-1.465-3.125-.977-3.783v-4.441l.977-2.8 1.465-3.289 1.465-3.125 2.116-2.467 1.954-2.3 3.093-2.467 2.93-2.138 2.442-1.645 3.419-1.48L5131.89 11l4.884-.658h4.4l3.582.658 3.744 1.316 3.582 1.48 2.442 1.645 2.6 2.138 2.116 2.467 1.3 2.3 1.3 4.441.651 5.263-.651 5.756-1.3 5.1-2.116 4.77-2.6 3.947-3.744 3.454-3.58 2.634-3.744 1.645-3.582.822-4.4.822h-7.652l-4.884-.822h-6.18l6.832-5.1 1.954-6.414 2.279-8.223 1.791-5.756 2.116-7.894 1.954-7.73h-4.973" fill="none" stroke="#880e4f" stroke-width="6" stroke-dasharray="209.10160439707872,0.5115191180978731" stroke-dashoffset="209.613124"/><path d="M5206.939 49.756c-.582-.084-1.152-.235-1.7-.449-.596-.328-1.164-.704-1.7-1.123l-2.293-2.808-1.465-3.125-.977-3.783v-4.441l.977-2.8 1.465-3.289 1.465-3.125 2.116-2.467 1.954-2.3 3.093-2.467 2.93-2.138 2.442-1.645 3.419-1.48L5222.89 11l4.884-.658h4.4l3.582.658 3.744 1.316 3.582 1.48 2.442 1.645 2.6 2.138 2.116 2.467 1.3 2.3 1.3 4.441.651 5.263-.651 5.756-1.3 5.1-2.116 4.77-2.6 3.947-3.744 3.454-3.58 2.634-3.744 1.645-3.582.822-4.4.822h-7.652l-4.884-.822h-6.18l6.832-5.1 1.954-6.414 2.279-8.223 1.791-5.756 2.116-7.894 1.954-7.73h-4.973" fill="none" stroke="#880e4f" stroke-width="6" stroke-dasharray="209.3292696546084,0.2838538605681959" stroke-dashoffset="209.613124"/><path d="M5297.939 49.756c-.582-.084-1.152-.235-1.7-.449-.596-.328-1.164-.704-1.7-1.123l-2.293-2.808-1.465-3.125-.977-3.783v-4.441l.977-2.8 1.465-3.289 1.465-3.125 2.116-2.467 1.954-2.3 3.093-2.467 2.93-2.138 2.442-1.645 3.419-1.48L5313.89 11l4.884-.658h4.4l3.582.658 3.744 1.316 3.582 1.48 2.442 1.645 2.6 2.138 2.116 2.467 1.3 2.3 1.3 4.441.651 5.263-.651 5.756-1.3 5.1-2.116 4.77-2.6 3.947-3.744 3.454-3.58 2.634-3.744 1.645-3.582.822-4.4.822h-7.652l-4.884-.822h-6.18l6.832-5.1 1.954-6.414 2.279-8.223 1.791-5.756 2.116-7.894 1.954-7.73h-4.973" fill="none" stroke="#880e4f" stroke-width="6" stroke-dasharray="209.4886346281859,0.12448888699070038" stroke-dashoffset="209.613124"/><path d="M5388.939 49.756c-.582-.084-1.152-.235-1.7-.449-.596-.328-1.164-.704-1.7-1.123l-2.293-2.808-1.465-3.125-.977-3.783v-4.441l.977-2.8 1.465-3.289 1.465-3.125 2.116-2.467 1.954-2.3 3.093-2.467 2.93-2.138 2.442-1.645 3.419-1.48L5404.89 11l4.884-.658h4.4l3.582.658 3.744 1.316 3.582 1.48 2.442 1.645 2.6 2.138 2.116 2.467 1.3 2.3 1.3 4.441.651 5.263-.651 5.756-1.3 5.1-2.116 4.77-2.6 3.947-3.744 3.454-3.58 2.634-3.744 1.645-3.582.822-4.4.822h-7.652l-4.884-.822h-6.18l6.832-5.1 1.954-6.414 2.279-8.223 1.791-5.756 2.116-7.894 1.954-7.73h-4.973" fill="none" stroke="#880e4f" stroke-width="6" stroke-dasharray="209.58240553234714,0.03071798282946999" stroke-dashoffset="209.613124"/><path d="M5479.939 49.756c-.582-.084-1.152-.235-1.7-.449-.596-.328-1.164-.704-1.7-1.123l-2.293-2.808-1.465-3.125-.977-3.783v-4.441l.977-2.8 1.465-3.289 1.465-3.125 2.116-2.467 1.954-2.3 3.093-2.467 2.93-2.138 2.442-1.645 3.419-1.48L5495.89 11l4.884-.658h4.4l3.582.658 3.744 1.316 3.582 1.48 2.442 1.645 2.6 2.138 2.116 2.467 1.3 2.3 1.3 4.441.651 5.263-.651 5.756-1.3 5.1-2.116 4.77-2.6 3.947-3.744 3.454-3.58 2.634-3.744 1.645-3.582.822-4.4.822h-7.652l-4.884-.822h-6.18l6.832-5.1 1.954-6.414 2.279-8.223 1.791-5.756 2.116-7.894 1.954-7.73h-4.973" fill="none" stroke="#880e4f" stroke-width="6"/></svg>